<svg xmlns="http://www.w3.org/2000/svg" version="1.1" width="20px" height="21px" style="shapeRendering:geometricPrecision; textRendering:geometricPrecision; imageRendering:optimizeQuality; fillRule:event; clipRule:event" xmlnsXlink="http://www.w3.org/1999/xlink">
    <g><path style="opacity:0.938" fill="#ffca44" d="M 19.5,8.5 C 19.5,9.5 19.5,10.5 19.5,11.5C 15.2504,12.2725 10.9171,12.7725 6.5,13C 8.91927,14.5088 9.91927,16.6755 9.5,19.5C 8.44802,19.6495 7.44802,19.4828 6.5,19C 4.29681,16.6278 1.96348,14.4611 -0.5,12.5C -0.5,11.1667 -0.5,9.83333 -0.5,8.5C 1.96348,6.53886 4.29681,4.37219 6.5,2C 7.44802,1.51722 8.44802,1.35055 9.5,1.5C 9.25619,4.2626 7.92286,6.42927 5.5,8C 10.1548,8.49915 14.8215,8.66582 19.5,8.5 Z"/></g>
</svg>